<svg width="115" height="109" viewBox="0 0 115 109" fill="none" xmlns="http://www.w3.org/2000/svg">
<g clip-path="url(#clip0_17321_10182)">
<path fill-rule="evenodd" clip-rule="evenodd" d="M71.5992 38.6448C71.49 37.243 71.2385 36.1977 70.7308 35.3043C70.2325 34.4253 69.4875 33.6935 68.3819 32.9142L61.3209 28.8325C60.1156 28.1625 58.7679 27.407 57.2684 26.5421C55.7689 25.6726 54.4449 24.8838 53.2586 24.171L46.2023 20.0893C45.0065 19.5333 44.0242 19.253 43.042 19.2482C42.0644 19.2387 41.0869 19.5048 39.9101 20.0418L26.3859 27.8631C25.3325 28.6186 24.6159 29.3314 24.1319 30.1867C23.6479 31.042 23.3964 32.0351 23.2778 33.3514V41.5149C23.3015 42.8976 23.3252 44.4419 23.3252 46.1763C23.3252 47.9107 23.3062 49.455 23.2778 50.8378V59.0012C23.4011 60.3507 23.6574 61.3629 24.1699 62.2324C24.6919 63.1162 25.4701 63.8575 26.628 64.6558L32.8443 68.2529C34.2252 69.0131 35.7959 69.8922 37.5896 70.9281C39.3833 71.964 40.9256 72.8906 42.2732 73.7079L48.4943 77.3049C49.7945 77.9227 50.8432 78.2315 51.8967 78.222C52.8505 78.2125 53.8043 77.9512 54.9527 77.4285L60.5379 74.202L68.4673 69.6166C69.4923 68.8848 70.1993 68.1863 70.6786 67.3643C71.2101 66.4567 71.4711 65.3923 71.585 63.9525V56.7584C71.5517 55.1808 71.5233 53.3799 71.5233 51.3082C71.5233 49.2317 71.5517 47.4308 71.585 45.8532V38.6638L71.5992 38.6448ZM58.3361 68.6473L56.9837 67.868L54.6679 66.528C53.3203 65.7107 51.7781 64.7841 49.9843 63.7482C48.1906 62.7123 46.6199 61.8333 45.239 61.073L39.0227 57.4759C37.8648 56.6776 37.0866 55.9411 36.5646 55.0525C36.0521 54.183 35.7911 53.1709 35.6725 51.8214V43.6579C35.6962 42.2751 35.72 40.7308 35.72 38.9964C35.72 37.2621 35.701 35.7177 35.6725 34.335V28.3193L40.8781 31.3271C42.0597 32.0399 43.3836 32.8287 44.8879 33.6982C46.3874 34.5631 47.7351 35.3186 48.9404 35.9886L56.0014 40.0703C57.107 40.8496 57.852 41.5814 58.3503 42.4605C58.8581 43.3538 59.1048 44.3992 59.2187 45.8009V52.9903C59.1855 54.5679 59.157 56.3688 59.157 58.4453C59.157 60.5218 59.1855 62.3227 59.2187 63.9003V69.1509L58.3408 68.6425L58.3361 68.6473Z" fill="#F4F4F4"/>
<path fill-rule="evenodd" clip-rule="evenodd" d="M87.9752 29.1746C87.8661 27.7728 87.6146 26.7275 87.1068 25.8341C86.6086 24.9551 85.8636 24.2233 84.7579 23.444L77.6969 19.3623C76.4916 18.6923 75.1439 17.9367 73.6444 17.0719C72.1449 16.2024 70.821 15.4136 69.6346 14.7008L62.5784 10.6191C61.3873 10.0679 60.4003 9.78752 59.418 9.77802C58.4405 9.76851 57.4629 10.0346 56.2861 10.5716L48.5512 15.0429C48.2048 15.252 47.8489 15.4658 47.4788 15.6844C47.6924 15.7747 47.9011 15.865 48.1147 15.9648L48.2997 16.0503L55.5696 20.2556L55.6028 20.2746C56.9077 21.0634 58.2174 21.8379 59.5414 22.6029C60.8606 23.368 62.1892 24.114 63.5227 24.8505L63.5606 24.8695L70.8352 29.0748L71.0013 29.1936C72.1401 29.9966 73.1556 30.8852 73.9766 31.9734C74.2708 32.2965 74.5175 32.6339 74.7216 32.995C74.9114 33.3324 75.068 33.6935 75.1914 34.0831C75.7561 35.4136 76.0123 36.8154 76.1309 38.2837L76.1452 38.4642V45.9245C76.1072 47.7111 76.0835 49.4978 76.0835 51.2844C76.0835 53.0711 76.1072 54.8577 76.1452 56.6444V64.1094L76.1309 64.2899C76.1072 64.5988 76.074 64.9029 76.036 65.2023C76.4204 64.9884 76.7905 64.7794 77.1512 64.5798L84.8528 60.1274C85.8778 59.3956 86.5848 58.6971 87.0689 57.8751C87.6003 56.9675 87.8613 55.9031 87.9752 54.4633V47.2692C87.942 45.6916 87.9135 43.8907 87.9135 41.819C87.9135 39.7472 87.942 37.9416 87.9752 36.364V29.1746Z" fill="#F4F4F4"/>
</g>
<path d="M6.528 104.176C5.68533 104.176 4.90133 104.032 4.176 103.744C3.45067 103.445 2.81067 103.035 2.256 102.512C1.712 101.979 1.28533 101.365 0.976 100.672C0.677333 99.968 0.528 99.2107 0.528 98.4C0.528 97.5893 0.677333 96.8373 0.976 96.144C1.28533 95.44 1.70667 94.8267 2.24 94.304C2.784 93.7707 3.41867 93.36 4.144 93.072C4.86933 92.7733 5.648 92.624 6.48 92.624C7.42933 92.624 8.32533 92.8213 9.168 93.216C10.0107 93.6 10.6987 94.1333 11.232 94.816L9.296 96.56C8.93333 96.0907 8.512 95.7387 8.032 95.504C7.56267 95.2693 7.04533 95.152 6.48 95.152C6.032 95.152 5.616 95.2373 5.232 95.408C4.85867 95.568 4.528 95.792 4.24 96.08C3.96267 96.368 3.744 96.7093 3.584 97.104C3.43467 97.4987 3.36 97.9307 3.36 98.4C3.36 98.8693 3.44 99.3067 3.6 99.712C3.76 100.107 3.984 100.453 4.272 100.752C4.57067 101.04 4.912 101.269 5.296 101.44C5.69067 101.6 6.11733 101.68 6.576 101.68C7.01333 101.68 7.408 101.605 7.76 101.456C8.12267 101.307 8.432 101.099 8.688 100.832C8.944 100.565 9.12533 100.261 9.232 99.92H6.208V97.536H12.208V98.336C12.208 99.1787 12.064 99.9573 11.776 100.672C11.4987 101.376 11.104 101.995 10.592 102.528C10.0907 103.051 9.49333 103.456 8.8 103.744C8.10667 104.032 7.34933 104.176 6.528 104.176ZM13.2144 104V95.536H15.8064V96.384C16.0837 96.0427 16.409 95.7867 16.7824 95.616C17.1557 95.4347 17.5717 95.344 18.0304 95.344C18.489 95.3547 18.8144 95.424 19.0064 95.552V97.808C18.8357 97.7227 18.6437 97.6587 18.4304 97.616C18.217 97.5733 17.9984 97.552 17.7744 97.552C17.369 97.552 16.9904 97.648 16.6384 97.84C16.297 98.0213 16.0197 98.2827 15.8064 98.624V104H13.2144ZM22.3484 104.144C21.751 104.144 21.2177 104.032 20.7484 103.808C20.2897 103.584 19.927 103.275 19.6604 102.88C19.4044 102.485 19.2764 102.032 19.2764 101.52C19.2764 100.709 19.5804 100.085 20.1884 99.648C20.807 99.2 21.6657 98.976 22.7644 98.976C23.4257 98.976 24.0657 99.056 24.6844 99.216V98.8C24.6844 98.3733 24.5457 98.0587 24.2684 97.856C24.0017 97.6427 23.6017 97.536 23.0684 97.536C22.7377 97.536 22.3644 97.5893 21.9484 97.696C21.543 97.8027 21.063 97.9733 20.5084 98.208L19.5804 96.304C20.2737 95.9947 20.9404 95.7653 21.5804 95.616C22.231 95.456 22.8817 95.376 23.5324 95.376C24.7057 95.376 25.6177 95.6587 26.2684 96.224C26.919 96.7787 27.2444 97.5627 27.2444 98.576V104H24.6844V103.488C24.343 103.723 23.9804 103.893 23.5964 104C23.223 104.096 22.807 104.144 22.3484 104.144ZM21.7404 101.472C21.7404 101.739 21.8577 101.947 22.0924 102.096C22.327 102.245 22.6524 102.32 23.0684 102.32C23.3777 102.32 23.6657 102.288 23.9324 102.224C24.2097 102.16 24.4604 102.059 24.6844 101.92V100.832C24.439 100.768 24.1884 100.72 23.9324 100.688C23.6764 100.656 23.415 100.64 23.1484 100.64C22.7004 100.64 22.3537 100.715 22.1084 100.864C21.863 101.003 21.7404 101.205 21.7404 101.472ZM28.465 107.264V95.536H31.025V96.16C31.697 95.6693 32.4543 95.424 33.297 95.424C34.1077 95.424 34.8383 95.6213 35.489 96.016C36.1397 96.4 36.657 96.9227 37.041 97.584C37.425 98.2347 37.617 98.9653 37.617 99.776C37.617 100.587 37.4197 101.323 37.025 101.984C36.641 102.635 36.113 103.152 35.441 103.536C34.7797 103.92 34.0383 104.112 33.217 104.112C32.8223 104.112 32.4437 104.064 32.081 103.968C31.7183 103.872 31.377 103.733 31.057 103.552V107.264H28.465ZM32.849 101.92C33.2757 101.92 33.6543 101.829 33.985 101.648C34.3157 101.456 34.577 101.2 34.769 100.88C34.9717 100.549 35.073 100.181 35.073 99.776C35.073 99.3707 34.9717 99.008 34.769 98.688C34.577 98.3573 34.3103 98.1013 33.969 97.92C33.6383 97.728 33.265 97.632 32.849 97.632C32.4863 97.632 32.1557 97.6907 31.857 97.808C31.5583 97.9147 31.2917 98.08 31.057 98.304V101.264C31.281 101.467 31.5477 101.627 31.857 101.744C32.1663 101.861 32.497 101.92 32.849 101.92ZM38.52 104V92.8L41.112 92.24V96.112C41.752 95.6213 42.5093 95.376 43.384 95.376C44.0453 95.376 44.6267 95.52 45.128 95.808C45.64 96.096 46.04 96.496 46.328 97.008C46.616 97.52 46.76 98.112 46.76 98.784V104H44.168V99.136C44.168 98.6667 44.0293 98.2933 43.752 98.016C43.4747 97.7387 43.1013 97.6 42.632 97.6C42.3013 97.6 42.008 97.6587 41.752 97.776C41.5067 97.8933 41.2933 98.0587 41.112 98.272V104H38.52ZM47.1013 104L50.3173 99.712L47.1493 95.536H50.1573L51.8213 97.808L53.4693 95.536H56.3653L53.2453 99.68L56.5413 104H53.5333L51.7573 101.584L49.9973 104H47.1013ZM59.5185 104.16C58.8145 104.16 58.1372 104.032 57.4865 103.776C56.8358 103.509 56.3078 103.152 55.9025 102.704L56.8465 101.712C57.2518 102.107 57.6785 102.405 58.1265 102.608C58.5852 102.811 59.0545 102.912 59.5345 102.912C60.0678 102.912 60.5052 102.8 60.8465 102.576C61.1878 102.341 61.3585 102.043 61.3585 101.68C61.3585 101.424 61.2678 101.221 61.0865 101.072C60.9052 100.912 60.6172 100.789 60.2225 100.704L58.8305 100.384C58.1372 100.235 57.6198 99.984 57.2785 99.632C56.9478 99.2693 56.7825 98.8107 56.7825 98.256C56.7825 97.744 56.9105 97.3013 57.1665 96.928C57.4225 96.544 57.7798 96.2507 58.2385 96.048C58.7078 95.8347 59.2518 95.728 59.8705 95.728C60.4998 95.728 61.0972 95.8347 61.6625 96.048C62.2385 96.2613 62.7665 96.576 63.2465 96.992L62.3345 98C61.9292 97.6587 61.5078 97.3973 61.0705 97.216C60.6332 97.0347 60.2012 96.944 59.7745 96.944C59.2945 96.944 58.9105 97.0507 58.6225 97.264C58.3345 97.4773 58.1905 97.76 58.1905 98.112C58.1905 98.368 58.2812 98.5707 58.4625 98.72C58.6438 98.8693 58.9425 98.992 59.3585 99.088L60.7505 99.408C61.4545 99.5573 61.9825 99.808 62.3345 100.16C62.6865 100.512 62.8625 100.96 62.8625 101.504C62.8625 102.005 62.7132 102.459 62.4145 102.864C62.1265 103.269 61.7265 103.589 61.2145 103.824C60.7132 104.048 60.1478 104.16 59.5185 104.16ZM67.7262 104.16C66.9476 104.16 66.2542 103.995 65.6462 103.664C65.0382 103.333 64.5636 102.88 64.2222 102.304C63.8809 101.717 63.7102 101.051 63.7102 100.304C63.7102 99.6853 63.8222 99.0987 64.0462 98.544C64.2702 97.9893 64.5796 97.4987 64.9742 97.072C65.3796 96.6453 65.8436 96.3147 66.3662 96.08C66.8889 95.8453 67.4489 95.728 68.0462 95.728C68.7289 95.728 69.3369 95.8987 69.8702 96.24C70.4036 96.5707 70.8249 97.0293 71.1342 97.616C71.4436 98.192 71.5982 98.8533 71.5982 99.6C71.5982 99.7067 71.5929 99.8293 71.5822 99.968C71.5822 100.096 71.5662 100.251 71.5342 100.432H65.2622C65.2942 100.891 65.4222 101.301 65.6462 101.664C65.8809 102.016 66.1849 102.293 66.5582 102.496C66.9316 102.699 67.3529 102.8 67.8222 102.8C68.1956 102.8 68.5529 102.747 68.8942 102.64C69.2462 102.523 69.5609 102.363 69.8382 102.16L70.6862 103.216C70.2169 103.547 69.7422 103.787 69.2622 103.936C68.7929 104.085 68.2809 104.16 67.7262 104.16ZM65.3902 99.248H70.1102C70.0676 98.8213 69.9449 98.448 69.7422 98.128C69.5502 97.808 69.2996 97.5573 68.9902 97.376C68.6809 97.184 68.3289 97.088 67.9342 97.088C67.5396 97.088 67.1662 97.184 66.8142 97.376C66.4729 97.5573 66.1796 97.8133 65.9342 98.144C65.6889 98.464 65.5076 98.832 65.3902 99.248ZM71.8946 104L73.6226 95.856H75.1746L74.9826 96.784C75.2813 96.432 75.6226 96.16 76.0066 95.968C76.4013 95.776 76.8173 95.68 77.2546 95.68C77.628 95.68 77.932 95.7387 78.1666 95.856L77.8786 97.296C77.772 97.232 77.6173 97.1787 77.4146 97.136C77.2226 97.0933 77.036 97.072 76.8546 97.072C75.9693 97.072 75.228 97.5253 74.6306 98.432L73.4466 104H71.8946ZM80.1343 104L78.4383 95.856H80.1023L81.2863 101.952L85.0943 95.856H86.8223L81.6383 104H80.1343ZM90.1413 104.16C89.3626 104.16 88.6693 103.995 88.0613 103.664C87.4533 103.333 86.9786 102.88 86.6373 102.304C86.2959 101.717 86.1253 101.051 86.1253 100.304C86.1253 99.6853 86.2373 99.0987 86.4613 98.544C86.6853 97.9893 86.9946 97.4987 87.3893 97.072C87.7946 96.6453 88.2586 96.3147 88.7813 96.08C89.3039 95.8453 89.8639 95.728 90.4613 95.728C91.1439 95.728 91.7519 95.8987 92.2853 96.24C92.8186 96.5707 93.2399 97.0293 93.5493 97.616C93.8586 98.192 94.0133 98.8533 94.0133 99.6C94.0133 99.7067 94.0079 99.8293 93.9973 99.968C93.9973 100.096 93.9813 100.251 93.9493 100.432H87.6773C87.7093 100.891 87.8373 101.301 88.0613 101.664C88.2959 102.016 88.5999 102.293 88.9733 102.496C89.3466 102.699 89.7679 102.8 90.2373 102.8C90.6106 102.8 90.9679 102.747 91.3093 102.64C91.6613 102.523 91.9759 102.363 92.2533 102.16L93.1013 103.216C92.6319 103.547 92.1573 103.787 91.6773 103.936C91.2079 104.085 90.6959 104.16 90.1413 104.16ZM87.8053 99.248H92.5253C92.4826 98.8213 92.3599 98.448 92.1573 98.128C91.9653 97.808 91.7146 97.5573 91.4053 97.376C91.0959 97.184 90.7439 97.088 90.3493 97.088C89.9546 97.088 89.5813 97.184 89.2293 97.376C88.8879 97.5573 88.5946 97.8133 88.3493 98.144C88.1039 98.464 87.9226 98.832 87.8053 99.248ZM94.3096 104L96.0376 95.856H97.5896L97.3976 96.784C97.6963 96.432 98.0376 96.16 98.4216 95.968C98.8163 95.776 99.2323 95.68 99.6696 95.68C100.043 95.68 100.347 95.7387 100.582 95.856L100.294 97.296C100.187 97.232 100.032 97.1787 99.8296 97.136C99.6376 97.0933 99.451 97.072 99.2696 97.072C98.3843 97.072 97.643 97.5253 97.0456 98.432L95.8616 104H94.3096ZM99.6885 104.112C99.4325 104.112 99.2192 104.027 99.0485 103.856C98.8778 103.685 98.7925 103.477 98.7925 103.232C98.7925 103.029 98.8458 102.843 98.9525 102.672C99.0592 102.501 99.1978 102.363 99.3685 102.256C99.5392 102.149 99.7258 102.096 99.9285 102.096C100.185 102.096 100.393 102.181 100.553 102.352C100.723 102.523 100.809 102.736 100.809 102.992C100.809 103.184 100.755 103.371 100.649 103.552C100.542 103.723 100.403 103.861 100.233 103.968C100.073 104.064 99.8912 104.112 99.6885 104.112ZM102.232 104L103.96 95.856H105.512L103.8 104H102.232ZM105.112 94.544C104.867 94.544 104.659 94.4587 104.488 94.288C104.328 94.1173 104.248 93.9093 104.248 93.664C104.248 93.4613 104.296 93.28 104.392 93.12C104.488 92.9493 104.622 92.816 104.792 92.72C104.963 92.624 105.144 92.576 105.336 92.576C105.582 92.576 105.784 92.6613 105.944 92.832C106.115 92.992 106.2 93.1947 106.2 93.44C106.2 93.632 106.147 93.8133 106.04 93.984C105.944 94.144 105.811 94.2773 105.64 94.384C105.48 94.4907 105.304 94.544 105.112 94.544ZM109.718 104.16C108.971 104.16 108.305 103.995 107.718 103.664C107.142 103.323 106.683 102.853 106.342 102.256C106.001 101.659 105.83 100.992 105.83 100.256C105.83 99.6373 105.947 99.056 106.182 98.512C106.417 97.9573 106.737 97.472 107.142 97.056C107.558 96.6293 108.033 96.2987 108.566 96.064C109.11 95.8187 109.681 95.696 110.278 95.696C111.025 95.696 111.686 95.8667 112.262 96.208C112.849 96.5387 113.313 96.9973 113.654 97.584C113.995 98.1707 114.166 98.8373 114.166 99.584C114.166 100.203 114.049 100.789 113.814 101.344C113.579 101.899 113.254 102.389 112.838 102.816C112.433 103.232 111.963 103.563 111.43 103.808C110.897 104.043 110.326 104.16 109.718 104.16ZM109.782 102.752C110.177 102.752 110.539 102.672 110.87 102.512C111.211 102.352 111.51 102.128 111.766 101.84C112.033 101.552 112.241 101.221 112.39 100.848C112.55 100.475 112.63 100.08 112.63 99.664C112.63 99.1733 112.523 98.736 112.31 98.352C112.107 97.9573 111.819 97.6533 111.446 97.44C111.083 97.216 110.673 97.104 110.214 97.104C109.819 97.104 109.451 97.184 109.11 97.344C108.779 97.504 108.481 97.728 108.214 98.016C107.947 98.2933 107.739 98.624 107.59 99.008C107.441 99.3813 107.366 99.7707 107.366 100.176C107.366 100.667 107.467 101.109 107.67 101.504C107.883 101.899 108.171 102.208 108.534 102.432C108.907 102.645 109.323 102.752 109.782 102.752Z" fill="#FAFAFA"/>
<defs>
<clipPath id="clip0_17321_10182">
<rect width="88" height="88" fill="white" transform="translate(13.5)"/>
</clipPath>
</defs>
</svg>
