<svg width="143" height="24" viewBox="0 0 143 24" fill="none" xmlns="http://www.w3.org/2000/svg">
<g clip-path="url(#clip0_17321_10187)">
<path fill-rule="evenodd" clip-rule="evenodd" d="M15.8452 10.5395C15.8155 10.1572 15.7469 9.87211 15.6084 9.62848C15.4725 9.38873 15.2693 9.18916 14.9678 8.97663L13.042 7.86342C12.7133 7.6807 12.3458 7.47465 11.9368 7.23879C11.5279 7.00163 11.1668 6.78651 10.8432 6.59212L8.91881 5.47892C8.59268 5.32729 8.32478 5.25083 8.05689 5.24954C7.79029 5.24695 7.52369 5.31952 7.20273 5.46596L3.51434 7.59905C3.22703 7.80511 3.03161 7.9995 2.89961 8.23276C2.7676 8.46603 2.69901 8.73688 2.66666 9.09585V11.3223C2.67313 11.6994 2.6796 12.1205 2.6796 12.5936C2.6796 13.0666 2.67442 13.4878 2.66666 13.8649V16.0913C2.70031 16.4593 2.77019 16.7353 2.90996 16.9725C3.05232 17.2135 3.26456 17.4157 3.58034 17.6334L5.27571 18.6144C5.65231 18.8218 6.08069 19.0615 6.56988 19.344C7.05908 19.6266 7.47969 19.8793 7.84723 20.1022L9.54389 21.0832C9.8985 21.2517 10.1845 21.3359 10.4718 21.3333C10.7319 21.3307 10.9921 21.2594 11.3053 21.1169L12.8285 20.2369L14.9911 18.9864C15.2706 18.7868 15.4634 18.5963 15.5942 18.3721C15.7391 18.1246 15.8103 17.8343 15.8413 17.4416V15.4796C15.8323 15.0493 15.8245 14.5582 15.8245 13.9932C15.8245 13.4268 15.8323 12.9357 15.8413 12.5054V10.5447L15.8452 10.5395ZM12.228 18.722L11.8592 18.5095L11.2276 18.144C10.8601 17.9211 10.4395 17.6684 9.95026 17.3859C9.46107 17.1034 9.0327 16.8636 8.65609 16.6563L6.96072 15.6753C6.64495 15.4576 6.4327 15.2567 6.29034 15.0144C6.15057 14.7772 6.07939 14.5012 6.04704 14.1331V11.9067C6.05351 11.5296 6.05998 11.1084 6.05998 10.6354C6.05998 10.1624 6.0548 9.74122 6.04704 9.36411V7.72346L7.46675 8.54379C7.789 8.73817 8.15007 8.9533 8.56032 9.19045C8.96928 9.42631 9.33683 9.63237 9.66555 9.81509L11.5913 10.9283C11.8928 11.1408 12.096 11.3404 12.2319 11.5801C12.3704 11.8238 12.4377 12.1089 12.4687 12.4912V14.4519C12.4597 14.8822 12.4519 15.3733 12.4519 15.9396C12.4519 16.506 12.4597 16.9971 12.4687 17.4274V18.8594L12.2293 18.7207L12.228 18.722Z" fill="#F4F4F4"/>
<path fill-rule="evenodd" clip-rule="evenodd" d="M20.3114 7.95673C20.2816 7.57443 20.2131 7.28933 20.0746 7.04569C19.9387 6.80595 19.7355 6.60637 19.434 6.39384L17.5082 5.28064C17.1795 5.09791 16.812 4.89186 16.403 4.656C15.9941 4.41885 15.633 4.20372 15.3094 4.00934L13.385 2.89613C13.0602 2.74581 12.791 2.66935 12.5231 2.66675C12.2565 2.66416 11.9899 2.73673 11.6689 2.88317L9.55942 4.10264C9.46495 4.15966 9.36789 4.21798 9.26694 4.27759C9.32518 4.30221 9.38212 4.32684 9.44036 4.35405L9.49083 4.37738L11.4735 5.52427L11.4826 5.52946C11.8385 5.74458 12.1957 5.95582 12.5567 6.16446C12.9165 6.37311 13.2789 6.57657 13.6425 6.77744L13.6529 6.78262L15.6369 7.92952L15.6822 7.96192C15.9928 8.18093 16.2697 8.42327 16.4936 8.72003C16.5738 8.80816 16.6411 8.90017 16.6968 8.99866C16.7486 9.09067 16.7913 9.18916 16.8249 9.29542C16.9789 9.65828 17.0488 10.0406 17.0812 10.441L17.085 10.4903V12.5249C17.0747 13.0121 17.0682 13.4994 17.0682 13.9867C17.0682 14.474 17.0747 14.9612 17.085 15.4485V17.4844L17.0812 17.5336C17.0747 17.6179 17.0656 17.7008 17.0553 17.7825C17.1601 17.7241 17.261 17.6671 17.3594 17.6127L19.4598 16.3984C19.7394 16.1988 19.9322 16.0083 20.0642 15.7841C20.2092 15.5366 20.2804 15.2463 20.3114 14.8537V12.8916C20.3024 12.4614 20.2946 11.9702 20.2946 11.4052C20.2946 10.8402 20.3024 10.3477 20.3114 9.91747V7.95673Z" fill="#F4F4F4"/>
</g>
<path d="M34.528 17.676C33.6853 17.676 32.9013 17.532 32.176 17.244C31.4507 16.9453 30.8107 16.5347 30.256 16.012C29.712 15.4787 29.2853 14.8653 28.976 14.172C28.6773 13.468 28.528 12.7107 28.528 11.9C28.528 11.0893 28.6773 10.3373 28.976 9.644C29.2853 8.94 29.7067 8.32667 30.24 7.804C30.784 7.27067 31.4187 6.86 32.144 6.572C32.8693 6.27333 33.648 6.124 34.48 6.124C35.4293 6.124 36.3253 6.32133 37.168 6.716C38.0107 7.1 38.6987 7.63333 39.232 8.316L37.296 10.06C36.9333 9.59067 36.512 9.23867 36.032 9.004C35.5627 8.76933 35.0453 8.652 34.48 8.652C34.032 8.652 33.616 8.73733 33.232 8.908C32.8587 9.068 32.528 9.292 32.24 9.58C31.9627 9.868 31.744 10.2093 31.584 10.604C31.4347 10.9987 31.36 11.4307 31.36 11.9C31.36 12.3693 31.44 12.8067 31.6 13.212C31.76 13.6067 31.984 13.9533 32.272 14.252C32.5707 14.54 32.912 14.7693 33.296 14.94C33.6907 15.1 34.1173 15.18 34.576 15.18C35.0133 15.18 35.408 15.1053 35.76 14.956C36.1227 14.8067 36.432 14.5987 36.688 14.332C36.944 14.0653 37.1253 13.7613 37.232 13.42H34.208V11.036H40.208V11.836C40.208 12.6787 40.064 13.4573 39.776 14.172C39.4987 14.876 39.104 15.4947 38.592 16.028C38.0907 16.5507 37.4933 16.956 36.8 17.244C36.1067 17.532 35.3493 17.676 34.528 17.676ZM41.2144 17.5V9.036H43.8064V9.884C44.0837 9.54267 44.409 9.28667 44.7824 9.116C45.1557 8.93467 45.5717 8.844 46.0304 8.844C46.489 8.85467 46.8144 8.924 47.0064 9.052V11.308C46.8357 11.2227 46.6437 11.1587 46.4304 11.116C46.217 11.0733 45.9984 11.052 45.7744 11.052C45.369 11.052 44.9904 11.148 44.6384 11.34C44.297 11.5213 44.0197 11.7827 43.8064 12.124V17.5H41.2144ZM50.3484 17.644C49.751 17.644 49.2177 17.532 48.7484 17.308C48.2897 17.084 47.927 16.7747 47.6604 16.38C47.4044 15.9853 47.2764 15.532 47.2764 15.02C47.2764 14.2093 47.5804 13.5853 48.1884 13.148C48.807 12.7 49.6657 12.476 50.7644 12.476C51.4257 12.476 52.0657 12.556 52.6844 12.716V12.3C52.6844 11.8733 52.5457 11.5587 52.2684 11.356C52.0017 11.1427 51.6017 11.036 51.0684 11.036C50.7377 11.036 50.3644 11.0893 49.9484 11.196C49.543 11.3027 49.063 11.4733 48.5084 11.708L47.5804 9.804C48.2737 9.49467 48.9404 9.26533 49.5804 9.116C50.231 8.956 50.8817 8.876 51.5324 8.876C52.7057 8.876 53.6177 9.15867 54.2684 9.724C54.919 10.2787 55.2444 11.0627 55.2444 12.076V17.5H52.6844V16.988C52.343 17.2227 51.9804 17.3933 51.5964 17.5C51.223 17.596 50.807 17.644 50.3484 17.644ZM49.7404 14.972C49.7404 15.2387 49.8577 15.4467 50.0924 15.596C50.327 15.7453 50.6524 15.82 51.0684 15.82C51.3777 15.82 51.6657 15.788 51.9324 15.724C52.2097 15.66 52.4604 15.5587 52.6844 15.42V14.332C52.439 14.268 52.1884 14.22 51.9324 14.188C51.6764 14.156 51.415 14.14 51.1484 14.14C50.7004 14.14 50.3537 14.2147 50.1084 14.364C49.863 14.5027 49.7404 14.7053 49.7404 14.972ZM56.465 20.764V9.036H59.025V9.66C59.697 9.16933 60.4543 8.924 61.297 8.924C62.1077 8.924 62.8383 9.12133 63.489 9.516C64.1397 9.9 64.657 10.4227 65.041 11.084C65.425 11.7347 65.617 12.4653 65.617 13.276C65.617 14.0867 65.4197 14.8227 65.025 15.484C64.641 16.1347 64.113 16.652 63.441 17.036C62.7797 17.42 62.0383 17.612 61.217 17.612C60.8223 17.612 60.4437 17.564 60.081 17.468C59.7183 17.372 59.377 17.2333 59.057 17.052V20.764H56.465ZM60.849 15.42C61.2757 15.42 61.6543 15.3293 61.985 15.148C62.3157 14.956 62.577 14.7 62.769 14.38C62.9717 14.0493 63.073 13.6813 63.073 13.276C63.073 12.8707 62.9717 12.508 62.769 12.188C62.577 11.8573 62.3103 11.6013 61.969 11.42C61.6383 11.228 61.265 11.132 60.849 11.132C60.4863 11.132 60.1557 11.1907 59.857 11.308C59.5583 11.4147 59.2917 11.58 59.057 11.804V14.764C59.281 14.9667 59.5477 15.1267 59.857 15.244C60.1663 15.3613 60.497 15.42 60.849 15.42ZM66.52 17.5V6.3L69.112 5.74V9.612C69.752 9.12133 70.5093 8.876 71.384 8.876C72.0453 8.876 72.6267 9.02 73.128 9.308C73.64 9.596 74.04 9.996 74.328 10.508C74.616 11.02 74.76 11.612 74.76 12.284V17.5H72.168V12.636C72.168 12.1667 72.0293 11.7933 71.752 11.516C71.4747 11.2387 71.1013 11.1 70.632 11.1C70.3013 11.1 70.008 11.1587 69.752 11.276C69.5067 11.3933 69.2933 11.5587 69.112 11.772V17.5H66.52ZM75.1013 17.5L78.3173 13.212L75.1493 9.036H78.1573L79.8213 11.308L81.4693 9.036H84.3653L81.2453 13.18L84.5413 17.5H81.5333L79.7573 15.084L77.9973 17.5H75.1013ZM87.5185 17.66C86.8145 17.66 86.1372 17.532 85.4865 17.276C84.8358 17.0093 84.3078 16.652 83.9025 16.204L84.8465 15.212C85.2518 15.6067 85.6785 15.9053 86.1265 16.108C86.5852 16.3107 87.0545 16.412 87.5345 16.412C88.0678 16.412 88.5052 16.3 88.8465 16.076C89.1878 15.8413 89.3585 15.5427 89.3585 15.18C89.3585 14.924 89.2678 14.7213 89.0865 14.572C88.9052 14.412 88.6172 14.2893 88.2225 14.204L86.8305 13.884C86.1372 13.7347 85.6198 13.484 85.2785 13.132C84.9478 12.7693 84.7825 12.3107 84.7825 11.756C84.7825 11.244 84.9105 10.8013 85.1665 10.428C85.4225 10.044 85.7798 9.75067 86.2385 9.548C86.7078 9.33467 87.2518 9.228 87.8705 9.228C88.4998 9.228 89.0972 9.33467 89.6625 9.548C90.2385 9.76133 90.7665 10.076 91.2465 10.492L90.3345 11.5C89.9292 11.1587 89.5078 10.8973 89.0705 10.716C88.6332 10.5347 88.2012 10.444 87.7745 10.444C87.2945 10.444 86.9105 10.5507 86.6225 10.764C86.3345 10.9773 86.1905 11.26 86.1905 11.612C86.1905 11.868 86.2812 12.0707 86.4625 12.22C86.6438 12.3693 86.9425 12.492 87.3585 12.588L88.7505 12.908C89.4545 13.0573 89.9825 13.308 90.3345 13.66C90.6865 14.012 90.8625 14.46 90.8625 15.004C90.8625 15.5053 90.7132 15.9587 90.4145 16.364C90.1265 16.7693 89.7265 17.0893 89.2145 17.324C88.7132 17.548 88.1478 17.66 87.5185 17.66ZM95.7262 17.66C94.9476 17.66 94.2542 17.4947 93.6462 17.164C93.0382 16.8333 92.5636 16.38 92.2222 15.804C91.8809 15.2173 91.7102 14.5507 91.7102 13.804C91.7102 13.1853 91.8222 12.5987 92.0462 12.044C92.2702 11.4893 92.5796 10.9987 92.9742 10.572C93.3796 10.1453 93.8436 9.81467 94.3662 9.58C94.8889 9.34533 95.4489 9.228 96.0462 9.228C96.7289 9.228 97.3369 9.39867 97.8702 9.74C98.4036 10.0707 98.8249 10.5293 99.1342 11.116C99.4436 11.692 99.5982 12.3533 99.5982 13.1C99.5982 13.2067 99.5929 13.3293 99.5822 13.468C99.5822 13.596 99.5662 13.7507 99.5342 13.932H93.2622C93.2942 14.3907 93.4222 14.8013 93.6462 15.164C93.8809 15.516 94.1849 15.7933 94.5582 15.996C94.9316 16.1987 95.3529 16.3 95.8222 16.3C96.1956 16.3 96.5529 16.2467 96.8942 16.14C97.2462 16.0227 97.5609 15.8627 97.8382 15.66L98.6862 16.716C98.2169 17.0467 97.7422 17.2867 97.2622 17.436C96.7929 17.5853 96.2809 17.66 95.7262 17.66ZM93.3902 12.748H98.1102C98.0676 12.3213 97.9449 11.948 97.7422 11.628C97.5502 11.308 97.2996 11.0573 96.9902 10.876C96.6809 10.684 96.3289 10.588 95.9342 10.588C95.5396 10.588 95.1662 10.684 94.8142 10.876C94.4729 11.0573 94.1796 11.3133 93.9342 11.644C93.6889 11.964 93.5076 12.332 93.3902 12.748ZM99.8946 17.5L101.623 9.356H103.175L102.983 10.284C103.281 9.932 103.623 9.66 104.007 9.468C104.401 9.276 104.817 9.18 105.255 9.18C105.628 9.18 105.932 9.23867 106.167 9.356L105.879 10.796C105.772 10.732 105.617 10.6787 105.415 10.636C105.223 10.5933 105.036 10.572 104.855 10.572C103.969 10.572 103.228 11.0253 102.631 11.932L101.447 17.5H99.8946ZM108.134 17.5L106.438 9.356H108.102L109.286 15.452L113.094 9.356H114.822L109.638 17.5H108.134ZM118.141 17.66C117.363 17.66 116.669 17.4947 116.061 17.164C115.453 16.8333 114.979 16.38 114.637 15.804C114.296 15.2173 114.125 14.5507 114.125 13.804C114.125 13.1853 114.237 12.5987 114.461 12.044C114.685 11.4893 114.995 10.9987 115.389 10.572C115.795 10.1453 116.259 9.81467 116.781 9.58C117.304 9.34533 117.864 9.228 118.461 9.228C119.144 9.228 119.752 9.39867 120.285 9.74C120.819 10.0707 121.24 10.5293 121.549 11.116C121.859 11.692 122.013 12.3533 122.013 13.1C122.013 13.2067 122.008 13.3293 121.997 13.468C121.997 13.596 121.981 13.7507 121.949 13.932H115.677C115.709 14.3907 115.837 14.8013 116.061 15.164C116.296 15.516 116.6 15.7933 116.973 15.996C117.347 16.1987 117.768 16.3 118.237 16.3C118.611 16.3 118.968 16.2467 119.309 16.14C119.661 16.0227 119.976 15.8627 120.253 15.66L121.101 16.716C120.632 17.0467 120.157 17.2867 119.677 17.436C119.208 17.5853 118.696 17.66 118.141 17.66ZM115.805 12.748H120.525C120.483 12.3213 120.36 11.948 120.157 11.628C119.965 11.308 119.715 11.0573 119.405 10.876C119.096 10.684 118.744 10.588 118.349 10.588C117.955 10.588 117.581 10.684 117.229 10.876C116.888 11.0573 116.595 11.3133 116.349 11.644C116.104 11.964 115.923 12.332 115.805 12.748ZM122.31 17.5L124.038 9.356H125.59L125.398 10.284C125.696 9.932 126.038 9.66 126.422 9.468C126.816 9.276 127.232 9.18 127.67 9.18C128.043 9.18 128.347 9.23867 128.582 9.356L128.294 10.796C128.187 10.732 128.032 10.6787 127.83 10.636C127.638 10.5933 127.451 10.572 127.27 10.572C126.384 10.572 125.643 11.0253 125.046 11.932L123.862 17.5H122.31ZM127.689 17.612C127.433 17.612 127.219 17.5267 127.049 17.356C126.878 17.1853 126.793 16.9773 126.793 16.732C126.793 16.5293 126.846 16.3427 126.953 16.172C127.059 16.0013 127.198 15.8627 127.369 15.756C127.539 15.6493 127.726 15.596 127.929 15.596C128.185 15.596 128.393 15.6813 128.553 15.852C128.723 16.0227 128.809 16.236 128.809 16.492C128.809 16.684 128.755 16.8707 128.649 17.052C128.542 17.2227 128.403 17.3613 128.233 17.468C128.073 17.564 127.891 17.612 127.689 17.612ZM130.232 17.5L131.96 9.356H133.512L131.8 17.5H130.232ZM133.112 8.044C132.867 8.044 132.659 7.95867 132.488 7.788C132.328 7.61733 132.248 7.40933 132.248 7.164C132.248 6.96133 132.296 6.78 132.392 6.62C132.488 6.44933 132.622 6.316 132.792 6.22C132.963 6.124 133.144 6.076 133.336 6.076C133.582 6.076 133.784 6.16133 133.944 6.332C134.115 6.492 134.2 6.69467 134.2 6.94C134.2 7.132 134.147 7.31333 134.04 7.484C133.944 7.644 133.811 7.77733 133.64 7.884C133.48 7.99067 133.304 8.044 133.112 8.044ZM137.718 17.66C136.971 17.66 136.305 17.4947 135.718 17.164C135.142 16.8227 134.683 16.3533 134.342 15.756C134.001 15.1587 133.83 14.492 133.83 13.756C133.83 13.1373 133.947 12.556 134.182 12.012C134.417 11.4573 134.737 10.972 135.142 10.556C135.558 10.1293 136.033 9.79867 136.566 9.564C137.11 9.31867 137.681 9.196 138.278 9.196C139.025 9.196 139.686 9.36667 140.262 9.708C140.849 10.0387 141.313 10.4973 141.654 11.084C141.995 11.6707 142.166 12.3373 142.166 13.084C142.166 13.7027 142.049 14.2893 141.814 14.844C141.579 15.3987 141.254 15.8893 140.838 16.316C140.433 16.732 139.963 17.0627 139.43 17.308C138.897 17.5427 138.326 17.66 137.718 17.66ZM137.782 16.252C138.177 16.252 138.539 16.172 138.87 16.012C139.211 15.852 139.51 15.628 139.766 15.34C140.033 15.052 140.241 14.7213 140.39 14.348C140.55 13.9747 140.63 13.58 140.63 13.164C140.63 12.6733 140.523 12.236 140.31 11.852C140.107 11.4573 139.819 11.1533 139.446 10.94C139.083 10.716 138.673 10.604 138.214 10.604C137.819 10.604 137.451 10.684 137.11 10.844C136.779 11.004 136.481 11.228 136.214 11.516C135.947 11.7933 135.739 12.124 135.59 12.508C135.441 12.8813 135.366 13.2707 135.366 13.676C135.366 14.1667 135.467 14.6093 135.67 15.004C135.883 15.3987 136.171 15.708 136.534 15.932C136.907 16.1453 137.323 16.252 137.782 16.252Z" fill="#F4F4F4"/>
<defs>
<clipPath id="clip0_17321_10187">
<rect width="24" height="24" fill="white"/>
</clipPath>
</defs>
</svg>
