<svg xmlns="http://www.w3.org/2000/svg" xmlns:xlink="http://www.w3.org/1999/xlink" width="1129" height="651" viewBox="0 0 1129 651"><defs><filter id="a" x="0" y="126" width="601" height="301" filterUnits="userSpaceOnUse"><feOffset dy="30" input="SourceAlpha"/><feGaussianBlur stdDeviation="25" result="b"/><feFlood flood-opacity="0.161"/><feComposite operator="in" in2="b"/><feComposite in="SourceGraphic"/></filter><filter id="c" x="239" y="242" width="281" height="94" filterUnits="userSpaceOnUse"><feOffset dy="20" input="SourceAlpha"/><feGaussianBlur stdDeviation="10" result="d"/><feFlood flood-opacity="0.059"/><feComposite operator="in" in2="d"/><feComposite in="SourceGraphic"/></filter><filter id="e" x="528" y="272" width="601" height="379" filterUnits="userSpaceOnUse"><feOffset dy="30" input="SourceAlpha"/><feGaussianBlur stdDeviation="25" result="f"/><feFlood flood-opacity="0.161"/><feComposite operator="in" in2="f"/><feComposite in="SourceGraphic"/></filter></defs><g transform="translate(-792 -207)"><g transform="translate(1186.47 207)"><path d="M131.133,262.323h15.814c1.021-2.23.576-4.155.576-6.011q.042-117.237.028-234.474c0-1.907.089-3.814.137-5.724V0H0V344.45H16.512v48.727h16.4V311.263H49.156V229.887H65.6v32.1H82.061V196.941H98.507v48.765c5.709.683,10.953-.4,16.558.785v32.148h16.07V262.32ZM114.55,49.222H65.407V49.3h0l-.079-.005q0,14.605-.005,29.208,0,9.714,0,19.43H65.4v.079h49.128v16.241H65.4V98.015H65.32v-.079H49.445V49.364c2-.18,3.992-.279,5.986-.315q1-.019,2-.015h.02c2.626.005,5.254.107,7.883.262v-.074h.079V32.865h49.143v16.36Z" fill="#02aeee"/><path d="M1021.667,407.923h13.655a21.15,21.15,0,0,0,.63-7.344c-.015-.378-.033-.754-.051-1.13a32.042,32.042,0,0,1,.005-4.073c.028-.333.066-.665.117-1a11.909,11.909,0,0,1,.465-1.963c.089-.269.2-.538.312-.805l.063-.16,15.263-.173c.074-1.745.213-3.489.213-5.237q.008-11.847.01-23.692,0-4.3.005-8.6.053-103.215.1-206.429V128.9H937.681c-.053,7-.152,14.008-.152,21.012q-.015,109.409-.005,218.815V374.8H921.311v16.345H905.022q.008,8.213.013,16.423H920.9v32.887H905.02v32.809h16.228V522.2h16.431V440.361h16.355V358.779H970.47v32.054h16.611v-64.82H1003.4v48.943h16.413V407.6c.617.107,1.234.211,1.854.317Zm-2.06-213.845v.076h-.074v16.665H1003.3V243.4H986.738V211.444c-5.475-1.214-10.58-.117-15.915-.805-1.44-5.148.282-10.636-1.115-16.215H954.2V161.95h15.987v32.105h16.149c1.288,5.612-.069,10.89.929,16.286h15.743V194.154h16.525v-.079h.074V161.947h15.979v32.131h-15.979Z" transform="translate(-675.183 -96.165)" fill="#fef101"/><path d="M1498.528,192.946q-44.9-.05-89.794-.013c-6.039.005-12.081.16-18.12.244v1.844h-.856v-1.783a.908.908,0,0,0-.686-.312v2.1q-.046,103.215-.1,206.429,0,4.3-.005,8.6-.008,11.847-.01,23.692c0,1.745-.14,3.489-.213,5.237l-15.263.173-.063.16c-.114.267-.224.536-.312.805a11.656,11.656,0,0,0-.465,1.963c-.051.33-.089.663-.117,1a32.064,32.064,0,0,0-.005,4.073c.018.376.036.752.051,1.13a21.145,21.145,0,0,1-.63,7.344h-13.655l-1.854-.317v-7.03h-.213V510.4h.206v27.031H1372.7v49.082h16.266V504.6h16.53V422.775h16.378v32.156h16.693V389.979h16.1v49.006h16.52v32.527h16.4v-16.4h16.261V193.48c-1.844-.988-3.619-.531-5.318-.533ZM1356.405,471.662l15.984-.053v32.908h-15.964q-.008-16.426-.018-32.857Zm114.347-229.656c-.678-.02-1.359-.028-2.037-.025-4.719.005-9.45.386-14.194-.378v.1h-.117c-.008,5.45-.008,10.91-.008,16.705H1438.5V274.8h15.88V291.71l.122.018.005-.005v.1h.005c5.282-1.133,10.608-.063,16.2-.612V307.4h-16.2c0-5.036,0-10.308-.005-15.575l-.127.023v-.14c-4.477-.871-9.028-.15-13.81-.434-.688-.041-1.384-.1-2.082-.193V275.251h-16.421v32.2h-16.342V225.915h16.042v32.314h16.408V241.7H1454.4v-.122l.005.005.122.015V225.879h16.23V242Z" transform="translate(-1011.798 -143.869)" fill="#252122"/><path d="M1421.345,1166.54a11.656,11.656,0,0,0-.465,1.963A11.91,11.91,0,0,1,1421.345,1166.54Z" transform="translate(-1060.037 -870.289)" fill="#252122"/><path d="M1420.219,1178.19c-.051.594-.069,1.191-.069,1.8,0,.752.028,1.511.064,2.278-.036-.767-.064-1.526-.064-2.278C1420.15,1179.384,1420.168,1178.784,1420.219,1178.19Z" transform="translate(-1059.493 -878.98)" fill="#252122"/><path d="M583.222,342.328V325.983h16.213v-6.075q0-109.409.005-218.815c0-7,.1-14.008.152-21.012-.6-5.442.45-10.984-.615-16.622h-114.2c-.048,1.907-.135,3.814-.137,5.724q-.011,117.237-.028,234.474c0,1.854.442,3.781-.577,6.011H468.223v16.319h-16.07a107.631,107.631,0,0,0,0,16.388H468.02v32.849H452.157v32.989H468.39v48.712h16.246v-81.69h16.456v-81.65h16.385v32.143H534V260.648h16.492V309.89h16.436v32.443H583.22ZM566.865,178.109V129.448H550.441v15.844H533.962V129.431H517.475v48.788H501.23V96.713h16.108v15.969h16.543v16.164h16.352V112.939h16.3V96.711h16.253v81.4H566.865Z" transform="translate(-337.092 -47.344)" fill="#eb018c"/><path d="M905.04,1161.55h0Z" transform="translate(-675.199 -866.566)" fill="#eb018c"/><path d="M1163.42,1292.221h15.956V1226.85H1163.42Z" transform="translate(-867.961 -915.283)" fill="#fef101"/><path d="M711.35,1227.612h15.883V1162.16H711.35Z" transform="translate(-530.698 -867.021)" fill="#eb018c"/><path d="M259.2,1163.8h15.654v-65.12H259.2Z" transform="translate(-193.374 -819.662)" fill="#02aeee"/><path d="M65.56,1614.18v32.659H81.272V1614.18Z" transform="translate(-48.911 -1204.247)" fill="#02aeee"/><path d="M1372.924,1290.53l-15.984.053q.012,16.43.018,32.857h15.964v-32.908Z" transform="translate(-1012.335 -962.791)" fill="#fef101"/><path d="M533.323,1679.77H517.56v32.336h15.763Z" transform="translate(-386.122 -1253.18)" fill="#eb018c"/><path d="M468.947,1161.72H453.08q0,16.426.005,32.849h15.862Z" transform="translate(-338.017 -866.693)" fill="#02aeee"/><path d="M920.91,1226.21H905.045l-.015,32.887h15.88Z" transform="translate(-675.191 -914.805)" fill="#eb018c"/><path d="M969.89,1744.26v32.182h15.689V1744.26Z" transform="translate(-723.579 -1301.293)" fill="#fef101"/><path d="M1163.74,1565.664h15.824V1549.67H1163.74Z" transform="translate(-868.2 -1156.12)" fill="#fef101"/><path d="M711.04,1501.731H727V1485.81H711.04Z" transform="translate(-530.466 -1108.478)" fill="#eb018c"/><path d="M259.16,1437.6h15.656V1421.79H259.16Z" transform="translate(-193.344 -1060.716)" fill="#02aeee"/><path d="M65.45,1824.76H81.338v-15.88H65.45Z" transform="translate(-48.828 -1349.502)" fill="#02aeee"/><path d="M517.6,1889.134h15.9V1873.29H517.6Z" transform="translate(-386.152 -1397.554)" fill="#eb018c"/><path d="M969.67,1953.82h15.877V1938.1H969.67Z" transform="translate(-723.415 -1445.905)" fill="#fef101"/><path d="M257.319,193.82h-.079v.074h0l.079,0v-.076Z" transform="translate(-191.912 -144.598)" fill="#fefefe"/><path d="M257.543,133.6V145.76h49.141V129.4H257.54v4.2Z" transform="translate(-192.136 -96.538)" fill="#fefefe"/><path d="M257.52,402.181h49.128V385.94H257.52Z" transform="translate(-192.121 -287.928)" fill="#fefefe"/><path d="M202.7,193.073h-.02c-.665,0-1.331,0-2,.015-2,.036-3.99.135-5.986.315v48.567h15.875q0-9.714,0-19.43,0-14.605.005-29.208c-2.628-.152-5.254-.257-7.883-.262Z" transform="translate(-145.255 -144.038)" fill="#fefefe"/><path d="M257.21,385.709h.079v-.079h-.079Z" transform="translate(-191.89 -287.696)" fill="#fefefe"/><path d="M226.12,193.08h0" transform="translate(-168.695 -144.046)" fill="#fefefe"/><path d="M257.24,193.82h0" transform="translate(-191.912 -144.598)" fill="#fefefe"/><path d="M1147.488,291.244v16.187h-15.743c-1-5.394.358-10.674-.929-16.286h-16.149V259.04H1098.68v32.474h15.507c1.4,5.577-.325,11.067,1.115,16.215,5.336.688,10.44-.409,15.916.805v31.955h16.563v-32.58h16.233V291.242h-16.525Z" transform="translate(-819.662 -193.255)" fill="#fefefe"/><path d="M1372.219,259.023H1356.24v32.128h15.979V259.02Z" transform="translate(-1011.813 -193.24)" fill="#fefefe"/><path d="M1355.95,385.54v0l.033.033-.033-.033v0h0v.079h.074v-.079Z" transform="translate(-1011.597 -287.629)" fill="#fefefe"/><path d="M1355.95,385.55l.033.033-.033-.033" transform="translate(-1011.597 -287.637)" fill="#fefefe"/><path d="M1355.95,385.54v0" transform="translate(-1011.597 -287.629)" fill="#fefefe"/><path d="M1583.6,338.853v16.53h-16.408V323.07H1551.15V404.6h16.342V372.4h16.421v15.832c.7.091,1.394.152,2.082.193,4.782.284,9.33-.437,13.81.434V371.949h-15.88V355.556h15.893V338.851H1583.6Z" transform="translate(-1157.224 -241.024)" fill="#fefefe"/><path d="M1759.448,596.377V580.19c-5.6.549-10.92-.521-16.2.609h-.005c.005,5.27.005,10.542.005,15.578Z" transform="translate(-1300.532 -432.847)" fill="#fefefe"/><path d="M1742.867,582.249v-.1l-.005.005-.122-.02v.142Z" transform="translate(-1300.159 -434.294)" fill="#fefefe"/><path d="M1743.29,338.647c4.746.767,9.478.386,14.194.381q1.021,0,2.037.025V322.93h-16.23Z" transform="translate(-1300.569 -240.92)" fill="#fefefe"/><path d="M1742.8,384.745l0-.005v.122h.125v-.1Z" transform="translate(-1300.203 -287.032)" fill="#fefefe"/><path d="M727.876,194.39H711.623v16.228h-16.3v15.908H678.971V210.361H662.429V194.393H646.32v81.5h16.246V227.107h16.487v15.862h16.479V227.125h16.423v48.661h15.921Z" transform="translate(-482.182 -145.023)" fill="#fefefe"/></g><g transform="translate(-476 -227)"><g transform="matrix(1, 0, 0, 1, 1268, 434)" filter="url(#a)"><rect width="451" height="151" rx="10" transform="translate(75 171)" fill="#fff"/></g><g transform="translate(1379.851 641.851)"><text transform="translate(0.149 22.149)" fill="#252122" font-size="18" font-family="Montserrat-SemiBold, Montserrat" font-weight="600"><tspan x="0" y="0">Swatch Name:</tspan></text><text transform="translate(32.149 67.149)" fill="#252122" font-size="18" font-family="Montserrat-SemiBold, Montserrat" font-weight="600"><tspan x="0" y="0">Color Type:</tspan></text><rect width="221" height="33" transform="translate(157.149 0.149)" fill="#fff"/><path d="M1,1V32H220V1H1M0,0H221V33H0Z" transform="translate(157.149 0.149)" fill="#ff9810"/><g transform="matrix(1, 0, 0, 1, -111.85, -207.85)" filter="url(#c)"><rect width="221" height="34" transform="translate(269 252)" fill="#fbfbfb"/></g><text transform="translate(171.149 66.149)" fill="#ff9810" font-size="12" font-family="Montserrat-SemiBold, Montserrat" font-weight="600"><tspan x="0" y="0">Process Color</tspan></text><path d="M7.011,0l7.011,11.7H0Z" transform="translate(362.947 66.976) rotate(180)" fill="#ff9810"/></g></g><g transform="translate(-120 2440)"><g transform="matrix(1, 0, 0, 1, 912, -2233)" filter="url(#e)"><rect width="451" height="229" rx="10" transform="translate(603 317)" fill="#fff"/></g><g transform="translate(0 -169)"><text transform="translate(1580 -1696)" fill="#252122" font-size="18" font-family="Montserrat-SemiBold, Montserrat" font-weight="600"><tspan x="0" y="0">Ink Color</tspan></text><text transform="translate(1615 -1653)" fill="#b7b7b7" font-size="18" font-family="ArgentumSans-Light, Argentum Sans" font-weight="300"><tspan x="0" y="0">Yellow</tspan></text><text transform="translate(1615 -1608)" fill="#b7b7b7" font-size="18" font-family="ArgentumSans-Light, Argentum Sans" font-weight="300"><tspan x="0" y="0">Magenta</tspan></text><text transform="translate(1615 -1563)" fill="#b7b7b7" font-size="18" font-family="ArgentumSans-Light, Argentum Sans" font-weight="300"><tspan x="0" y="0">Cyan</tspan></text><text transform="translate(1698 -1696)" fill="#252122" font-size="18" font-family="Montserrat-SemiBold, Montserrat" font-weight="600"><tspan x="0" y="0">Ink Opacity</tspan></text><text transform="translate(1789 -1653)" fill="#ff9810" font-size="18" font-family="Montserrat-SemiBold, Montserrat" font-weight="600"><tspan x="0" y="0">%</tspan></text><text transform="translate(1789 -1608)" fill="#ff9810" font-size="18" font-family="Montserrat-SemiBold, Montserrat" font-weight="600"><tspan x="0" y="0">%</tspan></text><text transform="translate(1789 -1563)" fill="#ff9810" font-size="18" font-family="Montserrat-SemiBold, Montserrat" font-weight="600"><tspan x="0" y="0">%</tspan></text><text transform="translate(1834 -1696)" fill="#252122" font-size="18" font-family="Montserrat-SemiBold, Montserrat" font-weight="600"><tspan x="0" y="0">Output</tspan></text><rect width="48" height="33" transform="translate(1732 -1675)" fill="#fff"/><path d="M1,1V32H47V1H1M0,0H48V33H0Z" transform="translate(1732 -1675)" fill="#ff9810"/><rect width="48" height="33" transform="translate(1732 -1630)" fill="#fff"/><path d="M1,1V32H47V1H1M0,0H48V33H0Z" transform="translate(1732 -1630)" fill="#ff9810"/><rect width="48" height="33" transform="translate(1732 -1585)" fill="#fff"/><path d="M1,1V32H47V1H1M0,0H48V33H0Z" transform="translate(1732 -1585)" fill="#ff9810"/><rect width="27" height="27" transform="translate(1580 -1672)" fill="#fffc05"/><rect width="27" height="27" transform="translate(1580 -1627)" fill="#ff21c4"/><rect width="27" height="27" transform="translate(1580 -1582)" fill="#01fed4"/><g transform="translate(0 -4)"><rect width="18" height="18" transform="translate(1857 -1664)" fill="#252122"/><rect width="14" height="14" transform="translate(1859 -1662)" fill="#ff9810"/></g><g transform="translate(0 41)"><rect width="18" height="18" transform="translate(1857 -1664)" fill="#252122"/><rect width="14" height="14" transform="translate(1859 -1662)" fill="#ff9810"/></g><g transform="translate(0 86)"><rect width="18" height="18" transform="translate(1857 -1664)" fill="#252122"/><rect width="14" height="14" transform="translate(1859 -1662)" fill="#ff9810"/></g><text transform="translate(1745 -1653)" fill="#b7b7b7" font-size="18" font-family="ArgentumSans-Light, Argentum Sans" font-weight="300"><tspan x="0" y="0">20</tspan></text><text transform="translate(1745 -1607)" fill="#b7b7b7" font-size="18" font-family="ArgentumSans-Light, Argentum Sans" font-weight="300"><tspan x="0" y="0">20</tspan></text><text transform="translate(1745 -1562)" fill="#b7b7b7" font-size="18" font-family="ArgentumSans-Light, Argentum Sans" font-weight="300"><tspan x="0" y="0">20</tspan></text></g></g></g></svg>