<?xml version="1.0" encoding="UTF-8"?>
<svg id="Layer_2" data-name="Layer 2" xmlns="http://www.w3.org/2000/svg" viewBox="0 0 780.54 828.44">
  <g id="Layer_1-2" data-name="Layer 1">
    <g>
      <rect x="487.3" y="287.02" width="37.3" height="118.91" transform="translate(553.03 -264.93) rotate(60)" fill="#003ba2"/>
      <path d="M458.74,395.26l-18.65-32.31c-1.61-2.79-.65-6.35,2.13-7.96l102.98-59.45c2.79-1.61,6.35-.65,7.96,2.13l18.65,32.31c1.61,2.79,.65,6.35-2.13,7.96l-102.98,59.45c-2.79,1.61-6.35,.65-7.96-2.13Zm-5.64-33.09l12.82,22.21,92.88-53.62-12.82-22.21-92.88,53.62Z"/>
      <rect x="252.07" y="422.83" width="37.3" height="118.91" transform="translate(553.03 6.69) rotate(60)" fill="#003ba2"/>
      <path d="M223.51,531.07l-18.65-32.31c-1.61-2.79-.65-6.35,2.13-7.96l102.98-59.45c2.79-1.61,6.35-.65,7.96,2.13l18.65,32.31c1.61,2.79,.65,6.35-2.13,7.96l-102.98,59.45c-2.79,1.61-6.35,.65-7.96-2.13Zm-5.64-33.09l12.82,22.21,92.88-53.62-12.82-22.21-92.88,53.62Z"/>
      <rect x="492.82" y="422.48" width="37.3" height="118.91" transform="translate(1184.57 279.95) rotate(120)" fill="#003ba2"/>
      <path d="M445.61,471.27c-.25-.44-.45-.91-.58-1.41-.4-1.49-.19-3.08,.58-4.42l18.65-32.31c1.61-2.79,5.17-3.74,7.96-2.13l102.98,59.45c1.34,.77,2.32,2.04,2.72,3.54,.4,1.49,.19,3.08-.58,4.42l-18.65,32.31c-1.61,2.79-5.17,3.74-7.96,2.13l-102.98-59.45c-.89-.52-1.63-1.25-2.13-2.13Zm25.83-27.26l-12.82,22.21,92.88,53.62,12.82-22.21-92.88-53.62Z"/>
      <rect x="246.67" y="280.57" width="37.3" height="118.91" transform="translate(692.45 280.26) rotate(120)" fill="#003ba2"/>
      <path d="M199.46,329.37c-1.01-1.75-1.08-3.96,0-5.83l18.65-32.31c.77-1.34,2.05-2.32,3.54-2.72,1.49-.4,3.08-.19,4.42,.58l102.98,59.45c2.79,1.61,3.74,5.18,2.13,7.96l-18.65,32.31c-.77,1.34-2.05,2.32-3.54,2.72-1.49,.4-3.08,.19-4.42-.58l-102.98-59.45c-.92-.53-1.64-1.27-2.13-2.13Zm25.83-27.26l-12.82,22.21,92.88,53.62,12.82-22.21-92.88-53.62Z"/>
      <rect x="372.17" y="213.5" width="37.3" height="118.91" transform="translate(781.63 545.9) rotate(180)" fill="#003ba2"/>
      <path d="M367.11,335.31c-.49-.86-.78-1.85-.78-2.91v-118.91c0-1.55,.61-3.03,1.71-4.12,1.09-1.09,2.58-1.71,4.12-1.71h37.3c3.22,0,5.83,2.61,5.83,5.83v118.91c0,1.55-.61,3.03-1.71,4.12-1.09,1.09-2.58,1.71-4.12,1.71h-37.3c-2.16,0-4.04-1.17-5.05-2.92Zm10.88-115.99v107.25s25.65,0,25.65,0v-107.25s-25.65,0-25.65,0Z"/>
      <rect x="372.72" y="501.24" width="37.3" height="118.91" transform="translate(782.75 1121.38) rotate(180)" fill="#003ba2"/>
      <path d="M367.68,623.06c-.51-.88-.78-1.88-.78-2.91v-118.91c0-3.22,2.61-5.83,5.83-5.83h37.3c1.55,0,3.03,.61,4.12,1.71s1.71,2.58,1.71,4.12v118.91c0,3.22-2.61,5.83-5.83,5.83h-37.3c-1.55,0-3.03-.61-4.12-1.71-.36-.36-.67-.77-.93-1.21Zm10.88-115.99v107.25s25.65,0,25.65,0v-107.25s-25.65,0-25.65,0Z"/>
      <path d="M255.17,548.59l-49.07-84.99c-11.72-20.3-37.68-27.26-57.98-15.54l-117.29,67.72c-20.3,11.72-27.26,37.68-15.54,57.98l49.07,84.99c11.72,20.3,37.68,27.26,57.98,15.54l117.29-67.72c20.3-11.72,27.26-37.68,15.54-57.98Zm-151.48,102.81c-1.26,.73-2.89,.29-3.62-.98l-59.71-103.42c-.73-1.27-.3-2.9,.96-3.62l125.45-72.43c1.26-.73,2.89-.29,3.62,.98l59.71,103.42c.73,1.27,.3,2.9-.96,3.62l-125.45,72.43Z" fill="#c8c8c8"/>
      <path d="M59.31,661.67l-49.07-84.98c-13.31-23.05-5.38-52.63,17.67-65.94l117.29-67.72c23.05-13.31,52.63-5.38,65.94,17.67l49.07,84.98c13.31,23.05,5.38,52.63-17.67,65.94l-117.29,67.72c-23.05,13.31-52.63,5.38-65.94-17.67Zm141.74-195.15c-10.1-17.49-32.53-23.5-50.02-13.4l-117.29,67.72c-17.49,10.09-23.5,32.53-13.4,50.02l49.07,84.98c10.09,17.49,32.53,23.5,50.02,13.4l117.29-67.72c17.49-10.09,23.5-32.53,13.4-50.02l-49.07-84.98Zm-106.03,186.82l-59.71-103.42c-2.34-4.05-.95-9.25,3.1-11.59l125.45-72.43c4.05-2.34,9.24-.94,11.58,3.11l59.71,103.42c2.34,4.05,.95,9.25-3.1,11.59l-125.45,72.43c-4.05,2.34-9.24,.94-11.58-3.11Zm-48.03-106.5l56.54,97.93,119.94-69.25-56.54-97.93-119.94,69.25Z"/>
      <path d="M769.03,251.91l-49.07-84.99c-11.72-20.3-37.68-27.26-57.98-15.54l-117.29,67.72c-20.3,11.72-27.26,37.68-15.54,57.98l49.07,84.99c11.72,20.3,37.68,27.26,57.98,15.54l117.29-67.72c20.3-11.72,27.26-37.68,15.54-57.98Zm-151.48,102.81c-1.26,.73-2.89,.29-3.62-.98l-59.71-103.42c-.73-1.27-.3-2.9,.96-3.62l125.45-72.43c1.26-.73,2.89-.29,3.62,.98l59.71,103.42c.73,1.27,.3,2.9-.96,3.62l-125.45,72.43Z" fill="#c8c8c8"/>
      <path d="M573.18,364.99l-49.07-84.98c-13.31-23.05-5.38-52.63,17.67-65.94l117.29-67.72c23.05-13.31,52.63-5.38,65.94,17.67l49.07,84.98c13.31,23.05,5.38,52.63-17.67,65.94l-117.29,67.72c-23.05,13.31-52.63,5.38-65.94-17.67Zm141.74-195.15c-10.1-17.49-32.53-23.5-50.02-13.4l-117.29,67.72c-17.49,10.1-23.5,32.53-13.4,50.02l49.07,84.98c10.09,17.49,32.53,23.5,50.02,13.4l117.29-67.72c17.49-10.1,23.5-32.53,13.4-50.02l-49.07-84.98Zm-106.03,186.82l-59.71-103.42c-2.34-4.05-.95-9.25,3.1-11.59l125.45-72.43c4.05-2.34,9.24-.94,11.58,3.11l59.71,103.42c2.34,4.05,.95,9.25-3.1,11.59l-125.45,72.43c-4.05,2.34-9.24,.94-11.58-3.11Zm-48.03-106.5l56.54,97.93,119.94-69.25-56.54-97.93-119.94,69.25Z"/>
      <path d="M718.39,657.77l49.07-84.99c11.72-20.3,4.77-46.26-15.54-57.98l-117.29-67.72c-20.3-11.72-46.26-4.77-57.98,15.54l-49.07,84.99c-11.72,20.3-4.77,46.26,15.54,57.98l117.29,67.72c20.3,11.72,46.26,4.77,57.98-15.54Zm-164.78-79.78c-1.26-.73-1.7-2.35-.96-3.62l59.71-103.42c.73-1.27,2.36-1.71,3.62-.98l125.45,72.43c1.26,.73,1.7,2.35,.96,3.62l-59.71,103.42c-.73,1.27-2.36,1.71-3.62,.98l-125.45-72.43Z" fill="#c8c8c8"/>
      <path d="M522.56,593.05c-2.1-3.63-3.73-7.56-4.84-11.72-3.34-12.45-1.62-25.46,4.82-36.63l49.07-84.99c13.31-23.05,42.89-30.98,65.94-17.67l117.29,67.72c11.17,6.45,19.16,16.86,22.49,29.31,3.34,12.45,1.62,25.46-4.82,36.63l-49.07,84.99c-13.31,23.05-42.89,30.98-65.94,17.67l-117.29-67.72c-7.44-4.29-13.47-10.35-17.65-17.59Zm239.84-59.85c-3.17-5.5-7.74-10.09-13.39-13.34l-117.29-67.72c-17.49-10.1-39.92-4.08-50.02,13.4l-49.07,84.99c-4.89,8.47-6.19,18.34-3.66,27.78,2.53,9.45,8.59,17.34,17.06,22.23l117.29,67.72c17.48,10.09,39.92,4.08,50.02-13.4l49.07-84.99c4.89-8.47,6.19-18.34,3.66-27.78-.85-3.15-2.08-6.14-3.67-8.89Zm-214.79,46.76c-.37-.64-.66-1.34-.85-2.07-.58-2.19-.28-4.47,.85-6.43l59.71-103.42c2.34-4.05,7.54-5.45,11.58-3.11l125.45,72.43c1.96,1.13,3.36,2.97,3.95,5.16,.58,2.19,.28,4.47-.85,6.43l-59.71,103.42c-2.34,4.05-7.54,5.45-11.58,3.11l-125.45-72.43c-1.3-.75-2.36-1.81-3.09-3.08Zm8.93-7.01s0,0,0,0h0Zm59.29-96.34l-56.54,97.93,119.94,69.25,56.54-97.93-119.94-69.25Z"/>
      <path d="M202.31,360.76l49.07-84.99c11.72-20.3,4.77-46.26-15.54-57.98l-117.29-67.72c-20.3-11.72-46.26-4.77-57.98,15.54L11.51,250.6c-11.72,20.3-4.77,46.26,15.54,57.98l117.29,67.72c20.3,11.72,46.26,4.77,57.98-15.54ZM37.54,280.99c-1.26-.73-1.7-2.35-.96-3.62l59.71-103.42c.73-1.27,2.36-1.71,3.62-.98l125.45,72.43c1.26,.73,1.7,2.35,.96,3.62l-59.71,103.42c-.73,1.27-2.36,1.71-3.62,.98l-125.45-72.43Z" fill="#c8c8c8"/>
      <path d="M6.51,296.02c-8.35-14.46-8.98-32.87-.05-48.34l49.07-84.99c13.31-23.05,42.89-30.98,65.94-17.67l117.29,67.72c11.17,6.45,19.16,16.85,22.49,29.31,3.34,12.45,1.62,25.46-4.82,36.63l-49.07,84.99c-6.45,11.17-16.86,19.16-29.31,22.49-12.45,3.34-25.46,1.62-36.63-4.82L24.13,313.63c-7.58-4.38-13.53-10.52-17.62-17.6Zm239.81-59.84c-3.17-5.5-7.75-10.09-13.39-13.34l-117.29-67.72c-17.49-10.09-39.92-4.08-50.02,13.4L16.55,253.51c-10.09,17.48-4.08,39.92,13.4,50.02l117.29,67.72c8.47,4.89,18.34,6.19,27.78,3.66,9.45-2.53,17.34-8.59,22.23-17.06l49.07-84.99c4.89-8.47,6.19-18.34,3.66-27.79-.84-3.15-2.08-6.14-3.67-8.89ZM31.53,282.95c-.37-.64-.66-1.34-.85-2.07-.58-2.19-.28-4.47,.85-6.43l59.71-103.42c1.13-1.96,2.96-3.36,5.14-3.95,2.19-.59,4.48-.29,6.44,.84l125.45,72.43c1.96,1.13,3.37,2.97,3.95,5.16,.58,2.19,.28,4.47-.85,6.43l-59.71,103.42c-1.13,1.96-2.96,3.36-5.14,3.95-2.19,.59-4.48,.29-6.44-.84l-125.45-72.43c-1.3-.75-2.36-1.81-3.09-3.08Zm68.22-103.35l-56.54,97.93,119.94,69.25,56.54-97.93-119.94-69.25Z"/>
      <path d="M341.99,226.15h98.13c23.44,0,42.44-19,42.44-42.44V48.27c0-23.44-19-42.44-42.44-42.44h-98.13c-23.44,0-42.44,19-42.44,42.44V183.71c0,23.44,19,42.44,42.44,42.44Zm-13.3-182.59c0-1.46,1.19-2.65,2.66-2.65h119.42c1.47,0,2.66,1.19,2.66,2.65V188.42c0,1.46-1.19,2.65-2.66,2.65h-119.42c-1.47,0-2.66-1.19-2.66-2.65V43.56Z" fill="#c8c8c8"/>
      <path d="M300.13,207.79c-4.18-7.24-6.41-15.49-6.41-24.08V48.27c0-12.89,5.02-25.02,14.14-34.14C316.97,5.02,329.1,0,341.99,0h98.13c12.89,0,25.02,5.02,34.13,14.14,9.12,9.12,14.14,21.24,14.14,34.14V183.71c0,26.62-21.66,48.27-48.27,48.27h-98.13c-12.89,0-25.02-5.02-34.13-14.14-3.04-3.04-5.63-6.42-7.73-10.05ZM471.88,30.01c-1.59-2.75-3.55-5.32-5.86-7.63-6.92-6.92-16.11-10.72-25.89-10.72h-98.13c-9.78,0-18.98,3.81-25.89,10.72-6.92,6.92-10.72,16.11-10.72,25.89V183.71c0,9.78,3.81,18.97,10.72,25.89,6.92,6.91,16.11,10.72,25.89,10.72h98.13c9.78,0,18.98-3.81,25.89-10.72,6.92-6.92,10.72-16.11,10.72-25.89V48.27c0-6.51-1.69-12.77-4.86-18.27Zm-147.89,162.63c-.73-1.27-1.12-2.72-1.12-4.22V43.56c0-2.27,.89-4.4,2.49-6,1.6-1.6,3.73-2.48,6-2.48h119.42c2.26,0,4.39,.88,5.99,2.48,1.61,1.6,2.49,3.73,2.49,6V188.42c0,2.27-.89,4.4-2.49,6-1.6,1.6-3.73,2.48-6,2.48h-119.42c-2.26,0-4.39-.88-5.99-2.48-.54-.54-1-1.13-1.37-1.78Zm10.53-145.89V185.24s113.08,0,113.08,0V46.75s-113.08,0-113.08,0Zm0-3.18h0s0,0,0,0h0Z"/>
      <path d="M341.76,822.61h98.13c23.44,0,42.44-19,42.44-42.44v-135.44c0-23.44-19-42.44-42.44-42.44h-98.13c-23.44,0-42.44,19-42.44,42.44v135.44c0,23.44,19,42.44,42.44,42.44Zm-13.3-182.59c0-1.46,1.19-2.65,2.66-2.65h119.42c1.47,0,2.66,1.19,2.66,2.65v144.86c0,1.46-1.19,2.65-2.66,2.65h-119.42c-1.47,0-2.66-1.19-2.66-2.65v-144.86Z" fill="#c8c8c8"/>
      <path d="M299.89,804.24c-4.18-7.24-6.41-15.49-6.41-24.08v-135.44c0-26.62,21.66-48.27,48.27-48.27h98.13c12.89,0,25.02,5.02,34.13,14.14,9.12,9.12,14.14,21.24,14.14,34.14v135.44c0,26.62-21.66,48.27-48.27,48.27h-98.13c-12.9,0-25.02-5.02-34.13-14.14-3.04-3.04-5.63-6.42-7.73-10.05Zm171.75-177.78c-1.59-2.75-3.55-5.32-5.86-7.63-6.91-6.91-16.11-10.72-25.89-10.72h-98.13c-20.19,0-36.62,16.43-36.62,36.62v135.44c0,9.78,3.81,18.97,10.72,25.89,6.92,6.91,16.11,10.72,25.89,10.72h98.13c20.19,0,36.62-16.43,36.62-36.62v-135.44c0-6.51-1.69-12.77-4.86-18.27Zm-147.89,162.63c-.73-1.27-1.12-2.72-1.12-4.22v-144.86c0-4.67,3.81-8.47,8.49-8.47h119.42c2.26,0,4.39,.88,6,2.48,1.61,1.6,2.49,3.73,2.49,6v144.86c0,4.67-3.81,8.47-8.49,8.47h-119.42c-2.26,0-4.39-.88-6-2.48-.54-.54-1-1.13-1.37-1.78Zm10.53-145.89v138.49s113.08,0,113.08,0v-138.49s-113.08,0-113.08,0Zm0-3.18s0,0,0,0h0Z"/>
      <path d="M488.63,356.47l-96.76-55.86-96.76,55.86v111.73s96.76,55.86,96.76,55.86l96.76-55.86v-111.73Zm-96.75,100.28l-38.48-22.21v-44.43s38.47-22.21,38.47-22.21l38.48,22.21v44.43s-38.47,22.21-38.47,22.21Z" fill="#003ba2"/>
      <path d="M488.63,356.47l2.91-5.05-96.76-55.86c-1.8-1.04-4.03-1.04-5.83,0l-96.76,55.86c-1.8,1.04-2.91,2.97-2.91,5.05v111.73c0,2.08,1.11,4.01,2.91,5.05l96.76,55.86c1.8,1.04,4.03,1.04,5.83,0l96.76-55.86c1.8-1.04,2.91-2.97,2.91-5.05v-111.73c0-2.08-1.11-4.01-2.91-5.05l-2.91,5.05h-5.83s0,108.36,0,108.36l-90.93,52.5-90.93-52.5v-104.99s90.93-52.5,90.93-52.5l93.84,54.18,2.91-5.05h-5.83s5.83,0,5.83,0Zm-96.75,100.28l2.91-5.05-35.56-20.52v-37.69s32.64-18.84,32.64-18.84l32.65,18.84v37.69s-35.56,20.53-35.56,20.53l2.91,5.05,2.91-5.05-2.91,5.05,2.91,5.05,38.46-22.21c1.8-1.04,2.91-2.96,2.91-5.05v-44.43c0-2.08-1.1-4.01-2.91-5.05l-38.48-22.21c-1.8-1.04-4.02-1.04-5.83,0l-38.46,22.21c-1.8,1.04-2.91,2.96-2.91,5.05v44.43c0,2.08,1.1,4.01,2.91,5.05l38.48,22.21c1.8,1.04,4.02,1.04,5.83,0l-2.91-5.05Z"/>
    </g>
  </g>
</svg>