<?xml version="1.0" encoding="UTF-8"?><svg id="Layer_2" xmlns="http://www.w3.org/2000/svg" width="2309.98" height="2000" viewBox="0 0 2309.98 2000"><g id="Layer_1-2"><g><g><rect x="897.91" y="1323.45" width="514.18" height="631.45" fill="#fff"/><path d="M1412.09,1278.34h-211.99v-411.34h-90.21v411.34h-257.09v721.66h604.39v-721.66h-45.1Zm0,676.55H897.91v-631.45h514.18v631.45Z" fill="#252122"/></g><g><rect x="1530.67" y="185.03" width="631.45" height="514.18" transform="translate(26.31 982.43) rotate(-30)" fill="#fff"/><path d="M1405.36,399.89l105.99,183.59-356.23,205.67,45.1,78.12,356.23-205.67,105.99,183.59,22.55,39.06,39.06-22.55,546.85-315.73,39.06-22.55-22.55-39.06L2030.33,39.06,2007.78,0l-39.06,22.55-546.85,315.73-39.06,22.55,22.55,39.06ZM1991.27,61.61l257.09,445.29-546.85,315.73-257.09-445.29L1991.27,61.61Z" fill="#252122"/></g><g><rect x="206.49" y="126.4" width="514.18" height="631.45" transform="translate(-151.1 622.54) rotate(-60)" fill="#fff"/><path d="M927.17,360.83l-39.06-22.55L341.25,22.55,302.19,0l-22.55,39.06L22.55,484.35,0,523.42l39.06,22.55,546.85,315.73,39.06,22.55,22.55-39.06,105.99-183.59,356.23,205.67,45.1-78.12-356.23-205.67,105.99-183.59,22.55-39.06Zm-61.61,16.51l-257.09,445.29L61.61,506.91,318.7,61.61,865.56,377.34Z" fill="#252122"/></g></g></g></svg>