<?xml version="1.0" encoding="UTF-8"?><svg id="Layer_2" xmlns="http://www.w3.org/2000/svg" width="2712" height="2712" viewBox="0 0 2712 2712"><g id="Layer_1-2"><g><rect x="1071" y="1962" width="570" height="700" fill="#fff"/><path d="M1641,1912h-235v-456h-100v456h-285v800h670v-800h-50Zm0,750h-570v-700h570v700Z" fill="#252122"/></g><g><rect x="1071" y="50" width="570" height="700" fill="#fff"/><path d="M1691,800V0H1021V800h285v456h100v-456h285Zm-50-50h-570V50h570V750Z" fill="#252122"/></g><g><rect x="1962" y="1071" width="700" height="570" fill="#fff"/><path d="M1912,1071v235h-456v100h456v285h800V1021h-800v50Zm750,0v570h-700v-570h700Z" fill="#252122"/></g><g><rect x="50" y="1071" width="700" height="570" fill="#fff"/><path d="M800,1021h-50s-700,0-700,0H0s0,50,0,50v570s0,50,0,50H50s700,0,700,0h50s0-50,0-50v-235h456s0-100,0-100h-456v-235s0-50,0-50Zm-50,50v570H50v-570H750Z" fill="#252122"/></g><rect x="1256" y="1256" width="200" height="200" fill="#252122"/></g></svg>