<?xml version="1.0" encoding="utf-8"?>
<!-- Generator: Adobe Illustrator 19.0.0, SVG Export Plug-In . SVG Version: 6.00 Build 0)  -->
<svg version="1.1" id="layer" xmlns="http://www.w3.org/2000/svg" xmlns:xlink="http://www.w3.org/1999/xlink" x="0px" y="0px"
	 viewBox="-153 -46 652 652" style="enable-background:new -153 -46 652 652;" xml:space="preserve">
<style type="text/css">
	.st0{fill:#E72927;}
</style>
<polyline class="st0" points="-64.6,228.4 -93.8,228.4 -93.8,228.5 -131.5,228.5 -131.5,250.8 -93.8,250.8 -93.8,323.6 -64.6,323.6 
	-64.6,250.8 -26.9,250.8 -26.9,228.5 -64.6,228.5 "/>
<path class="st0" d="M156.1,280.4c-0.3,14.9-6.7,23.1-21.1,23.1c-13.9,0-21.6-6.5-21.8-21.3v-4.9H84.4c0,0-0.1,6.7,0,9
	c0.1,18.8,10.1,29.6,19,34.5c7.1,3.9,18.1,5.5,26.9,5.5h9.7c8.3,0,20.7-1.1,29.9-7.7c11.4-8.2,15.6-20,15.6-35.1v-55.1h-29.3
	C156.1,228.5,156.3,273.4,156.1,280.4"/>
<rect x="195.3" y="228.4" class="st0" width="29.2" height="95.1"/>
<path class="st0" d="M335,226.2c-10.6,0.2-15.3,4.2-21.9,11.2c-1.7,1.8-2.7,3-3.1,3.6c-4-8-12.3-15-23.7-14.8
	c-10.6,0.2-17.3,7.4-22.3,14.7c0,0,0,0.1,0,0.1v-12.5h-27.2v95.1H264v-63.7c0,0.1,0,0.1,0,0.2c0-6,4.9-11,10.9-11
	c6,0,10.8,4.8,10.9,10.8c0,5,0,63.7,0,63.7h26.8c0,0,0-44.8-0.1-63.8c0,0.1,0,0.2,0,0.3c0-0.1,0-0.3,0-0.4c0,0,0,0,0,0
	c0-0.3,0-0.5,0-0.8c0.6-5.5,5.2-9.7,10.9-9.7c6,0,10.9,4.9,10.9,11l0,0c0,6.2,0,63.5,0,63.5h26.8c0,0-0.1-72-0.1-72.1
	C361.3,240.3,351.3,225.9,335,226.2"/>
<path class="st0" d="M68.7,233.4c-5.2-4.4-12.8-7.3-21.5-7.3H8.3c-9.2,0-13.7,2.4-20.4,8.5c-5,4.5-7.7,11.6-8.5,16.4H6.3
	c0.7-2.5,3.4-2.7,4.8-2.9h31.3c2.5,0,5.6,1.7,6.3,2.6c0.7,0.9,2.3,1.8,2.8,5.3v6.7c0,2.3-0.4,0-2.6-1.8c-2.1-1.7-8.5-2.4-11.7-2.4
	H10.9l0,0.1c-18.6,0.1-33.7,15.2-33.7,33.8c0,18.7,15.2,33.4,33.9,33.4h28.1c5.7,0,12.3-2.3,12.3-2.3h26.2v-71.2
	C77.7,247.5,75.8,239.4,68.7,233.4 M50.8,294.1c0,6.3-5.8,11.4-13,11.4H16.1c-7.2,0-13-5.1-13-11.4v-2.3c0-6.3,5.8-11.4,13-11.4
	h21.6c7.2,0,13,5.1,13,11.4V294.1z"/>
<path class="st0" d="M459.5,233.4c-5.2-4.4-12.8-7.3-21.5-7.3h-38.8c-9.2,0-13.7,2.4-20.4,8.5c-5,4.5-7.7,11.6-8.5,16.4h26.9
	c0.7-2.5,3.4-2.7,4.8-2.9h31.3c2.5,0,5.6,1.7,6.3,2.6c0.7,0.9,2.3,1.8,2.8,5.3v6.7c0,2.3-0.4,0-2.6-1.8c-2.1-1.7-8.5-2.4-11.7-2.4
	h-26.4l-0.1,0.1c-18.6,0.1-33.7,15.2-33.7,33.8c0,18.7,15.2,33.4,33.9,33.4H430c5.8,0,12.3-2.3,12.3-2.3h26.2v-71.2
	C468.5,247.5,466.6,239.4,459.5,233.4 M441.5,294.1c0,6.3-5.8,11.4-13,11.4h-21.6c-7.2,0-13-5.1-13-11.4v-2.3
	c0-6.3,5.8-11.4,13-11.4h21.6c7.2,0,13,5.1,13,11.4V294.1z"/>
</svg>
