<?xml version="1.0" encoding="utf-8"?>
<!-- Generator: Adobe Illustrator 26.5.0, SVG Export Plug-In . SVG Version: 6.00 Build 0)  -->
<svg version="1.1" id="Layer_1" xmlns="http://www.w3.org/2000/svg" xmlns:xlink="http://www.w3.org/1999/xlink" x="0px" y="0px"
	 viewBox="0 0 444.9 444.9" style="enable-background:new 0 0 444.9 444.9;" xml:space="preserve">
<path d="M230.8,26.4c1.4-1.8,2.4-4,2.4-6.5c0-6-4.8-10.8-10.8-10.8s-10.8,4.8-10.8,10.8c0,2.5,1,4.7,2.4,6.5l-94.2,168.9
	c-1,1.8-1.1,3.9-0.2,5.8c0.4,0.9,42.3,91.4,41.6,149.9h-10c-3.5,0-6.4,2.9-6.4,6.4v36c0,3.5,2.9,6.4,6.4,6.4h5.1v29.6
	c0,3.5,2.9,6.4,6.4,6.4h119.7c3.5,0,6.4-2.9,6.4-6.4v-29.6h5.1c3.5,0,6.4-2.9,6.4-6.4v-36c0-3.5-2.9-6.4-6.4-6.4h-10
	c-0.8-58.5,41.1-149,41.6-149.9c0.9-1.9,0.8-4-0.2-5.8L230.8,26.4z M222.4,155.5c17.6,0,32,14.3,32,31.9s-14.3,31.9-32,31.9
	s-31.9-14.3-31.9-31.9C190.5,169.9,204.8,155.5,222.4,155.5z M275.9,423H169v-23.3h106.9L275.9,423z M287.4,387.1H157.5v-23.3h129.8
	V387.1z M270.8,351H174c0.6-56-34-135.7-41.5-152.3l83.6-149.8v94.6c-21.6,3.1-38.3,21.6-38.3,44c0,24.6,20,44.7,44.7,44.7
	c24.6,0,44.7-20,44.7-44.7c0-22.4-16.7-40.9-38.3-44V48.9l83.6,149.8C304.9,215.3,270.2,295,270.8,351L270.8,351z"/>
</svg>
